<?xml version="1.0" standalone="no"?>
<!DOCTYPE svg PUBLIC "-//W3C//DTD SVG 20010904//EN"
 "http://www.w3.org/TR/2001/REC-SVG-20010904/DTD/svg10.dtd">
<svg version="1.0" xmlns="http://www.w3.org/2000/svg"
 width="256.000000pt" height="256.000000pt" viewBox="0 0 256.000000 256.000000"
 preserveAspectRatio="xMidYMid meet">
<metadata>
Created by potrace 1.11, written by Peter Selinger 2001-2013
</metadata>
<g transform="translate(0.000000,256.000000) scale(0.100000,-0.100000)"
fill="#000000" stroke="none">
<path d="M1519 2290 l-66 -95 -126 0 -125 0 -51 70 c-27 39 -58 80 -68 92
l-18 22 -130 -55 c-71 -30 -143 -61 -158 -67 -27 -11 -28 -15 -24 -57 3 -25 8
-52 11 -60 3 -8 7 -31 10 -50 3 -19 8 -45 10 -56 3 -16 -11 -36 -58 -81 -34
-32 -72 -72 -85 -89 l-22 -30 -116 18 c-64 11 -119 15 -123 11 -4 -4 -22 -46
-40 -93 -35 -89 -52 -134 -76 -187 -16 -38 -22 -31 96 -112 l84 -59 1 -124 2
-125 -36 -24 c-20 -13 -38 -26 -41 -29 -3 -3 -29 -23 -57 -44 -29 -21 -53 -40
-53 -42 0 -5 70 -172 101 -241 10 -23 19 -46 19 -50 0 -32 26 -31 228 11 15 3
29 -2 40 -16 9 -11 39 -41 66 -67 26 -25 59 -56 71 -68 20 -19 22 -27 15 -55
-5 -18 -11 -49 -14 -68 -8 -58 -18 -115 -22 -121 -2 -3 45 -25 104 -49 59 -24
125 -51 147 -60 71 -30 74 -30 91 -7 8 12 39 56 68 97 l52 75 125 1 124 2 65
-93 c40 -58 71 -93 80 -91 17 3 49 16 200 83 25 11 60 26 78 33 17 7 32 19 32
27 0 8 -9 61 -20 117 l-21 102 88 89 c48 50 91 89 94 88 4 -1 38 -7 75 -13
110 -17 127 -21 135 -26 8 -4 44 67 64 126 1 3 5 14 10 25 37 89 65 162 65
172 0 6 -21 25 -47 42 -27 17 -57 38 -68 47 -11 8 -32 22 -46 31 -25 15 -26
17 -26 142 l-1 127 56 39 c30 22 72 51 92 65 37 26 38 31 15 85 -7 17 -29 71
-49 120 -52 125 -61 140 -88 139 -32 -1 -108 -13 -117 -18 -4 -3 -25 -7 -48
-10 -40 -5 -43 -3 -130 82 l-89 87 8 43 c4 24 10 62 13 85 3 23 7 56 10 73 l6
30 -164 65 -163 64 -65 -95z m-51 -414 c12 -3 31 -8 42 -10 10 -3 36 -13 57
-22 234 -108 372 -327 359 -569 -5 -94 -10 -117 -37 -189 -64 -173 -224 -314
-409 -362 -64 -17 -188 -22 -245 -10 -55 11 -140 39 -165 56 -14 8 -38 22 -55
30 -16 8 -59 45 -95 82 -205 207 -231 515 -65 756 111 162 294 253 495 247 52
-1 105 -5 118 -9z"/>
<path d="M1190 1661 l0 -138 67 -67 66 -67 -31 -19 c-17 -10 -32 -29 -34 -42
-3 -20 -10 -16 -73 47 l-70 70 -130 1 c-71 1 -134 -2 -140 -7 -11 -8 -12 -275
-1 -287 4 -4 67 -7 139 -7 l132 0 66 67 67 68 16 -26 c10 -13 28 -30 41 -36
24 -11 23 -12 -45 -80 l-70 -70 0 -139 0 -139 145 2 c80 0 148 5 151 9 2 4 5
66 5 137 l1 130 -66 66 -66 66 38 38 37 38 66 -66 66 -65 137 0 c83 0 137 4
139 10 3 9 1 271 -2 286 0 3 -62 6 -136 5 l-136 -1 -70 -68 -69 -67 -12 25
c-7 15 -23 32 -36 39 l-25 13 66 66 66 65 1 99 c1 54 1 117 1 140 l-1 42 -150
-1 -150 0 0 -137z"/>
<path d="M1620 1610 c-27 -17 -200 -194 -200 -205 0 -6 8 -15 19 -22 16 -10
30 1 114 85 91 92 129 152 96 152 -8 0 -21 -4 -29 -10z"/>
</g>
</svg>
